<svg width="32" height="32" viewBox="0 0 32 32" fill="none" xmlns="http://www.w3.org/2000/svg">
<rect width="32" height="32" rx="8" fill="#E80245" fill-opacity="0.1"/>
<path d="M21.3327 14.6654C21.3327 17.994 17.64 21.4607 16.4 22.5314C16.2845 22.6182 16.1439 22.6652 15.9993 22.6652C15.8548 22.6652 15.7142 22.6182 15.5987 22.5314C14.3587 21.4607 10.666 17.994 10.666 14.6654C10.666 13.2509 11.2279 11.8943 12.2281 10.8941C13.2283 9.89393 14.5849 9.33203 15.9993 9.33203C17.4138 9.33203 18.7704 9.89393 19.7706 10.8941C20.7708 11.8943 21.3327 13.2509 21.3327 14.6654Z" stroke="#E80245" stroke-width="1.33333" stroke-linecap="round" stroke-linejoin="round"/>
<path d="M16 16.668C17.1046 16.668 18 15.7725 18 14.668C18 13.5634 17.1046 12.668 16 12.668C14.8954 12.668 14 13.5634 14 14.668C14 15.7725 14.8954 16.668 16 16.668Z" stroke="#E80245" stroke-width="1.33333" stroke-linecap="round" stroke-linejoin="round"/>
</svg>
