<svg width="32" height="32" viewBox="0 0 32 32" fill="none" xmlns="http://www.w3.org/2000/svg">
<rect width="32" height="32" rx="8" fill="#E80245" fill-opacity="0.1"/>
<path d="M17.222 19.044C17.3597 19.1073 17.5148 19.1217 17.6618 19.085C17.8088 19.0483 17.9389 18.9626 18.0307 18.842L18.2673 18.532C18.3915 18.3664 18.5526 18.232 18.7377 18.1395C18.9228 18.0469 19.127 17.9987 19.334 17.9987H21.334C21.6876 17.9987 22.0267 18.1392 22.2768 18.3892C22.5268 18.6393 22.6673 18.9784 22.6673 19.332V21.332C22.6673 21.6857 22.5268 22.0248 22.2768 22.2748C22.0267 22.5249 21.6876 22.6654 21.334 22.6654C18.1514 22.6654 15.0991 21.4011 12.8487 19.1506C10.5983 16.9002 9.33398 13.848 9.33398 10.6654C9.33398 10.3117 9.47446 9.9726 9.72451 9.72256C9.97456 9.47251 10.3137 9.33203 10.6673 9.33203H12.6673C13.0209 9.33203 13.3601 9.47251 13.6101 9.72256C13.8602 9.9726 14.0007 10.3117 14.0007 10.6654V12.6654C14.0007 12.8724 13.9525 13.0765 13.8599 13.2616C13.7673 13.4468 13.6329 13.6078 13.4673 13.732L13.1553 13.966C13.0329 14.0595 12.9467 14.1924 12.9112 14.3423C12.8757 14.4921 12.8932 14.6496 12.9607 14.788C13.8718 16.6386 15.3703 18.1352 17.222 19.044Z" stroke="#E80245" stroke-width="1.33333" stroke-linecap="round" stroke-linejoin="round"/>
</svg>
