<svg width="40" height="40" viewBox="0 0 40 40" fill="none" xmlns="http://www.w3.org/2000/svg">
<rect width="40" height="40" rx="6" fill="#E80245" fill-opacity="0.1"/>
<path d="M10.5005 25C9.80192 21.7033 9.80192 18.2967 10.5005 15C10.5923 14.6652 10.7696 14.3601 11.0151 14.1146C11.2606 13.8691 11.5657 13.6918 11.9005 13.6C17.2639 12.7115 22.737 12.7115 28.1005 13.6C28.4353 13.6918 28.7404 13.8691 28.9859 14.1146C29.2314 14.3601 29.4087 14.6652 29.5005 15C30.1991 18.2967 30.1991 21.7033 29.5005 25C29.4087 25.3348 29.2314 25.6399 28.9859 25.8854C28.7404 26.1309 28.4353 26.3082 28.1005 26.4C22.7371 27.2887 17.2639 27.2887 11.9005 26.4C11.5657 26.3082 11.2606 26.1309 11.0151 25.8854C10.7696 25.6399 10.5923 25.3348 10.5005 25Z" stroke="#E80245" stroke-width="2" stroke-linecap="round" stroke-linejoin="round"/>
<path d="M18 23L23 20L18 17V23Z" stroke="#E80245" stroke-width="2" stroke-linecap="round" stroke-linejoin="round"/>
</svg>
